<svg xmlns="http://www.w3.org/2000/svg" viewBox="0 0 239.39 167.97"><defs><style>.cls-1{isolation:isolate;}.cls-2{opacity:0.5;mix-blend-mode:multiply;}.cls-3{fill:none;stroke:#1d1d1b;stroke-linecap:round;stroke-miterlimit:10;stroke-width:3px;}.cls-4{fill:#010101;}.cls-5{font-size:35px;font-family:SimvoniRegular, Simvoni;letter-spacing:0.03em;}.cls-5,.cls-6{fill:#1d1d1b;}.cls-6{font-size:46px;font-family:musicalina;}</style></defs><g class="cls-1"><g id="Capa_2" data-name="Capa 2"><g id="Capa_19" data-name="Capa 19"><path class="cls-2" d="M114.18,151.55s-36.87-1.84-43.22.56C71,152.11,108.06,153.24,114.18,151.55Z"/><path d="M131.31,141s-43.6-1.63-51.11.5C80.2,141.46,124.07,142.47,131.31,141Z"/><path d="M167.9,158.93s-73.16-1.62-85.76.51C82.14,159.44,155.74,160.44,167.9,158.93Z"/><path class="cls-2" d="M207.31,151.29s-12.85-1.39-15.07.42C192.24,151.71,205.18,152.57,207.31,151.29Z"/><path d="M200.14,157.73s-23.9-1.63-28,.5C172.13,158.23,196.17,159.23,200.14,157.73Z"/><path class="cls-2" d="M163,167s-36.87-1.83-43.22.57C119.74,167.6,156.83,168.73,163,167Z"/><path class="cls-2" d="M132.55,151.08s-12.85-1.39-15.07.42C117.48,151.5,130.42,152.36,132.55,151.08Z"/><path d="M76.2,141.14s-24.06-1.63-28.21.5C48,141.64,72.2,142.64,76.2,141.14Z"/></g><g id="Capa_8" data-name="Capa 8"><path class="cls-3" d="M131.55,128.72H24.32A16,16,0,0,1,10.09,120L2.62,105.52a6,6,0,0,1,0-6.94l7.52-14.82A16,16,0,0,1,24.38,75H216a16,16,0,0,1,14.61,9.49l6.17,13.83a6,6,0,0,1,0,7.08l-6.17,13.83A16,16,0,0,1,216,128.72H203"/><circle cx="17.47" cy="101.17" r="2.89"/><circle cx="225" cy="101.86" r="2.89"/><path class="cls-4" d="M155.85,2a35.81,35.81,0,0,0-5.47,6.71,56.13,56.13,0,0,1-4.08,5.78c-.62.62-2.63,3.24-4.48,5.7a100.69,100.69,0,0,1-7.86,9c-4.32,4.17-5.7,6.86-3.55,6.86,1.32,0,4.48-2.93,7.56-6.93,1.46-1.93,3-4,3.55-4.63,4-5.09,10.79-14.11,12.79-17.11,2.85-4.24,4.24-4.94,7.71-3.78,2.62.92,2.7,1,8.33,10.41,2.77,4.54,4.47,6.55,6.93,7.94,4.4,2.46,7.64,5.93,7.64,8.17,0,1,1.38,3.7,3,6,8.87,12.1,12.18,16.34,14,17.35s3.7,3.54,11,13.56c1.54,2,2.78,2.93,4.09,2.93,1.15,0,1.77-.31,1.46-.77a1,1,0,0,0-1.31-.31c-.54.39-.62.16-.23-.38s-.77-2.39-3.24-4.94a58.46,58.46,0,0,1-5.24-6.32C207,55,201.49,48.44,194.78,41.11a25.42,25.42,0,0,1-3.7-4.54,9.38,9.38,0,0,0-1.46-2.7,21.54,21.54,0,0,1-2.47-5.94c-1.31-5.39-1.85-5.93-12.33-11.48-.85-.39-1.47-1-1.47-1.39a69.46,69.46,0,0,0-2.69-6.55c-2.7-5.86-2.86-5.94-6.87-7.33C158.63-.51,158.78-.51,155.85,2Z"/><path class="cls-4" d="M156.32,9.66a75,75,0,0,0-7.63,11.41c-2.7,4.63-6.56,11.1-8.64,14.26s-3,4.94-2.16,3.86,2.85-3.24,4.32-4.86a15,15,0,0,0,2.62-3.47c0-.38,1.39-2.08,3.08-3.85,3.32-3.4,3.94-3.55,1.7-.31a24.57,24.57,0,0,0-2,3.54c-.54,1.47-.47,1.47.92.16a65.1,65.1,0,0,0,6-7.79c2.39-3.62,4.55-6.4,4.78-6.24.47.54-3.54,8.17-6.47,12.1-2.62,3.55-6.25,6.63-7.48,6.25-.39-.08-.46.15-.23.54s-.39,2-1.39,3.54c-1.77,2.55-2,5-.46,5,.38,0,1.77-1.46,3.16-3.31,4.86-6.25,4.93-5.55.15,1.08-2.77,3.93-3.47,6.09-.84,3l1.61-1.92-.61,1.92a17.5,17.5,0,0,0-.77,4.17c-.16,2.08-.08,2.15.92.77a61.81,61.81,0,0,0,3.86-6.86c2.15-4.17,2.85-5.09,3.23-3.94s1.08.62,3.55-2.93c2.93-4.31,4.24-5.62,2.78-2.85-.47.77-.62,1.62-.39,1.85s-.23,1.47-1.16,2.7-1.38,2.47-1.15,2.7-.08,1.54-.7,3.08c-1.92,4.47-.3,4.86,2.47.46,1.31-2.15,2.31-4.16,2.08-4.31s-.92.69-1.62,2.08-1.46,2.23-1.69,2,1.38-3.23,3.54-6.78,3.93-6,3.93-5.63A16.81,16.81,0,0,1,163.72,35c-2.08,3.31-2.62,5.55-.77,3.16.84-1.08,1.15-1.24,1.15-.39A5.65,5.65,0,0,1,163,40.27a4.73,4.73,0,0,0-.7,3.46c.31,1.39-.31,3.17-2,5.79a20,20,0,0,0-2.78,6.09c-.23,2.16-.07,2,2.24-1.47,3.47-5.32,3.47-5.32,4.08-4.7.31.31-.77,2.54-2.31,4.93l-2.85,4.47,3.24-3.46c3.31-3.63,3.31-3.17-.08,1.92-3,4.55-3.47,5.71-1.31,3.09l2-2.32-.3,3.09-.39,3.08,1.93-3.08c2.7-4.32,2.39-1.54-.39,3.93-2.62,5.32-2.62,6.55.08,1.46,1.77-3.31,3-4.39,3-2.69A10.06,10.06,0,0,1,165.18,67c-.61,1.31-1,2.54-.77,2.77s.62-.15.93-.85c.61-1.62,1.62-1.62,2.08.08.38,1.46.77-6.94.54-11.25a24,24,0,0,0-1.24-5.63,19.68,19.68,0,0,1,.47-13.8,17.94,17.94,0,0,0,1.54-6,42.1,42.1,0,0,1,.92-7.17l.93-4.4-3.16-3.24a20.06,20.06,0,0,1-4.09-5.62C161.17,6,160.09,5.65,156.32,9.66Zm3.77,11c-.54.77-1.08,1.31-1.31,1.15s1.39-2.7,1.93-2.7C160.87,19.14,160.63,19.84,160.09,20.69ZM156,29.24c-1.23,1.31-1.31,1.7-.39,2.24s.93.92.16,1.69-.93.62-.93-.54c0-1.31-.07-1.31-1.54,0-.85.78-1.54,1-1.54.62a3.2,3.2,0,0,1,1.15-1.77c.7-.54,1-1.16.85-1.39s.39-1,1.31-1.7C157.24,26.62,157.86,27.16,156,29.24Zm3.16,2.39c-1.54,2.24-2.78,3.78-2.78,3.39,0-.92,4.94-8.09,5.25-7.78C161.79,27.39,160.71,29.32,159.17,31.63Zm4.16-2.93A4.62,4.62,0,0,1,162,30c-1.23,1-1.31.93-.31-.31S163.33,28.09,163.33,28.7Zm-6.09,16.89c-.77.69-.85.61-.38-.47.23-.77.69-1.15.92-.92S157.78,45.05,157.24,45.59Zm-9.33,1.31c-.46.84-1,1.54-1.23,1.54s0-.7.46-1.54,1-1.55,1.24-1.55S148.38,46.05,147.91,46.9Z"/><path class="cls-4" d="M97.88,10.51a43.73,43.73,0,0,1-6.7,4c-2.62,1.23-8,5.55-15,12C70.21,32,63.73,37.34,61.88,38.34a29.25,29.25,0,0,0-7.09,6.09c-2,2.31-4.93,5.63-6.47,7.32s-2.93,3.39-2.93,3.78c0,1-8.1,4.32-13.8,5.7-4.78,1.16-5.71,1.7-7.48,4.32-2.62,3.7-1.85,4.7,1.08,1.54a16.26,16.26,0,0,1,6-3.54c12.88-4,18.81-7.17,20.58-10.87,1.62-3.39,6.56-9.1,8.95-10.33A83.41,83.41,0,0,0,74.22,33c5.62-5.09,8.94-8.4,8.94-9.1,0-1.08,8.71-7.55,13-9.79s6.55-2.39,9.17-.92c2.39,1.39,8.17,8.55,10.33,12.87A58.78,58.78,0,0,0,120.16,33c3.78,4.78,6,8,5.86,8.56a17.67,17.67,0,0,0,2.47,3.31c1.31,1.54,2.46,2.55,2.46,2.24a16,16,0,0,0-2.46-3.32c-1.39-1.46-.7-1,1.54,1.16a31.59,31.59,0,0,1,5.7,7.24,22.34,22.34,0,0,0,3.09,4.86A53.44,53.44,0,0,1,143,62.7a15.17,15.17,0,0,0,5.71,5.78c4.62,2.39,6.09,2,3-.77-1.46-1.23-2.85-2.31-3.24-2.31s-1-.85-1.46-1.93-1.31-1.93-1.85-1.93S142.67,58.61,141,55c-2-4-4.4-7.55-6.33-9.33-5.85-5.24-14.26-16.8-18.73-25.75a21.09,21.09,0,0,0-9.63-10C102.28,7.89,101,8,97.88,10.51Z"/><path class="cls-4" d="M97.34,16.29c-1.31.93-4.85,3.93-7.86,6.71-4.39,3.85-5.47,5.32-5.09,6.55s.23,1.31-.38.39-1.16-.77-3.32,1.23a20.88,20.88,0,0,1-4.24,3.31c-.92.47-4.24,2.7-7.32,4.94-11,7.94-10.72,7.63-10.33,9.79.23,1.08.23,1.46,0,.92-.39-.77-.69-.77-1.54-.07a2.68,2.68,0,0,0-1.08,1.62c0,.46.54.38,1.15-.16s1.16-.69,1.16-.38.69,0,1.54-.78c2.55-2.31,2.78-.61.31,2.16L58.11,55,60.8,52.6c1.47-1.31,4.48-3.7,6.56-5.4,3.93-3,3.54-2.39-2.24,3.94-3.78,4-5.4,7-2.47,4.31,3.09-2.85,5.79-2.85,3.4-.07-.54.61.23,0,1.69-1.39a14,14,0,0,1,3.47-2.47c.46,0,.23.39-.38.77s-.78.77-.31.77.85,1.24.77,3-.39,3-.7,2.93-1.23.69-1.92,1.69c-1.24,1.78-1.24,1.85.23,1a15.79,15.79,0,0,0,3.47-2.93c1.08-1.16,1.38-1.78.77-1.47-.77.47-.7.08.31-1a3.61,3.61,0,0,0,1-2.85c-.31-.62-.23-1.08.08-1,.77.3,5.55-3.4,5.16-4-.15-.23,3.39-4.09,7.94-8.56s7.17-6.78,5.94-5.32c-5.48,6.4-5.86,7.09-1.7,3.08,2.39-2.31,4.39-3.93,4.39-3.54,0,1.16-6.55,8.32-8.24,9-2.09.77-11.1,11.56-10.72,12.72.23.54-.85,2-2.23,3.39s-2.39,2.93-2.16,3.47c.31,1-2.08,2.85-4.24,3.16-1.08.23-5.94,4.16-5.09,4.16a14,14,0,0,0,3.31-2.08l2.78-2-1.85,2c-3.16,3.47-.62,2.31,3-1.39,1.85-1.85,3.16-3.7,2.85-3.93-.62-.69,1.77-3.47,2.54-3s5-4.09,4.4-4.71c-.31-.31-1-.07-1.7.47s-1.16.69-1.16.46,1.78-2.16,3.86-4.09,3.85-4,3.85-4.55c0-1.23,1.31-2.08,1.85-1.23.23.39-.69,2-2,3.7s.23.39,3.47-2.77,5.93-5.48,5.93-5.25-2.08,2.86-4.62,5.71-4.4,5.47-4.17,5.78c.47.77-2.38,2.39-3.08,1.7-.23-.24-.46,0-.46.54a7.86,7.86,0,0,1-2.08,3.39c-1.47,1.54-1.54,1.85-.39.92,1.77-1.54,2.39-.69.77.93-.61.61-.69.92-.07.92.46,0,1.54-1.31,2.31-2.85s1.85-3,2.47-3.16.84,0,.38.69a9.31,9.31,0,0,0-.92,3l-.24,1.85,1.7-1.46c1.54-1.39,1.7-1.39,1.23-.24-.69,2,.23,1.7,3.24-1.15,1.47-1.31,2.24-1.78,1.62-.93a23.57,23.57,0,0,1-1.93,2.32c-2.16,2-7.47,8.32-5.78,6.86a21.07,21.07,0,0,1,3.08-2.24c.93-.54.93-.38-.07.85-3.78,4.47-1.31,6.55,3,2.54,2.78-2.62,2.86-2.62.62-.15l-2.16,2.39,2.55-.08c2.39-.15,2.85-.62,5.16-4.78,1.39-2.54,2.31-5.32,2.16-6.17s-.93-3.7-1.54-6.39c-1.24-5-1-7.87.77-10.57a6.73,6.73,0,0,0,1.08-3.46,34.18,34.18,0,0,1,2.31-7.94c1.85-4.78,2.24-6.79,1.93-9.64C102.74,13.82,101.74,13.13,97.34,16.29Zm-3.23,7.56c-1.78,1.69-3.09,3.47-2.78,3.85s.16.69-.23.62c-1-.23-3.32.92-3.32,1.69,0,.47.78.39,1.78-.07,1.54-.77,1.54-.77.31.23A2.18,2.18,0,0,0,89,32.63c.31.7.77,1,1,.62s1.54-1.46,2.78-2.54c1.61-1.31,1.38-.93-.78,1.38-1.61,1.78-2.77,3.24-2.38,3.24,1,0-2.16,3.55-8.79,9.79-3.55,3.32-6,5.32-5.63,4.47a14.61,14.61,0,0,1,2.47-3,14.33,14.33,0,0,0,2.77-3.78c1-2,1-2.39-.15-3.47-1.31-1.31-4-1.85-5.24-.92a13.1,13.1,0,0,1-2.24,1.08c-1.54.53-1.54.53-.08-1.08,1.93-2.16,4.71-3.7,3.78-2.16-.31.54.54.07,1.93-1.16,2.85-2.39,4.08-2.7,3.39-.77-.31.77,1.62-1,4.32-4C90.48,25.62,96,20.76,97,20.76,97.27,20.76,96,22.15,94.11,23.85Zm6.55-2.7a1.58,1.58,0,0,1-1.47.08c-.61-.24-.38-.47.47-.47S101,20.92,100.66,21.15Zm-4.4,16.73A13.34,13.34,0,0,1,94.18,40c-1.54,1.39-1.85,1.47-1,.31C94.57,38.49,96.26,37.11,96.26,37.88ZM71,49.44c-1.85,1.85-3.78,3.39-4.39,3.39s-.93-.23-.7-.46a1.74,1.74,0,0,1,1-.46c.31,0,1.7-1.31,3.09-2.93s2.93-2.86,3.39-2.86S72.75,47.59,71,49.44Zm2.93.54c-.46.85-1,1.54-1.23,1.54s0-.69.46-1.54,1-1.54,1.23-1.54S74.37,49.13,73.91,50Zm19.5,1.54c-.69.85-1.46,1.31-1.62,1.16C91.33,52.21,93.18,50,94,50,94.41,50,94.11,50.67,93.41,51.52Zm-4.08,4.16A4.78,4.78,0,0,1,88,57c-1.24,1-1.31.93-.31-.3S89.33,55.07,89.33,55.68Zm.77,9.95A14.2,14.2,0,0,1,88,67.79l-2.16,1.85,1.85-2.16C89.48,65.55,90.1,65,90.1,65.63Z"/><path class="cls-4" d="M84.78,33.25l-1.93,2.47,2.47-2.24c2.54-2.39,2.85-2.77,1.93-2.7C86.86,30.78,85.78,31.86,84.78,33.25Z"/><path class="cls-4" d="M85.4,35.1,82.77,38l2.93-2.62c2.62-2.54,3.24-3.16,2.62-3.16A25.65,25.65,0,0,0,85.4,35.1Z"/><path class="cls-4" d="M108.83,22.77c2.16,4.93,6.24,12,6.55,11.1.16-.46-.38-1.7-1.23-2.78a27.61,27.61,0,0,1-3.24-6.16c-.92-2.32-2-4.24-2.39-4.24S108.29,21.61,108.83,22.77Z"/><path class="cls-4" d="M173.82,24.15a6.9,6.9,0,0,0,1.54,1.93c.15,0-.16-.85-.62-1.93s-1.16-1.92-1.54-1.92S173.12,23.08,173.82,24.15Z"/><path class="cls-4" d="M177.13,28.16c.93,1.85,2.39,3,2.39,1.93,0-.39-.77-1.31-1.62-2.16C176.21,26.47,176.21,26.47,177.13,28.16Z"/><path class="cls-4" d="M181.06,35.72c0,.61.31,1.15.77,1.15s.54-.54.31-1.15-.62-1.16-.77-1.16S181.06,35.1,181.06,35.72Z"/><path class="cls-4" d="M106.29,36c0,1.23.92,3.16,1.54,3.16.31,0,.38-.85.15-1.93C107.67,35.49,106.29,34.48,106.29,36Z"/><path class="cls-4" d="M174.2,38.65C174.12,39.88,183.37,50,184.53,50c.39,0-1.08-1.85-3.16-4.09s-4.55-5.08-5.47-6.32C174.59,37.8,174.2,37.57,174.2,38.65Z"/><path class="cls-4" d="M185.84,41.88c2.24,2.32,4.16,4,4.4,3.78.46-.38-6.94-8-7.79-8C182.14,37.64,183.68,39.57,185.84,41.88Z"/><path class="cls-4" d="M160.09,44.74c-.61,1-1.54,2.62-2.08,3.7-.92,1.85-.85,1.85.31.38,1.47-1.77,3.7-5.78,3.16-5.78A6.34,6.34,0,0,0,160.09,44.74Z"/><path class="cls-4" d="M111.76,45a8.53,8.53,0,0,0,1.08,2.7c.62,1.08,1.08,1.54,1.08,1.15a7.88,7.88,0,0,0-1.08-2.7C112.22,45.05,111.76,44.51,111.76,45Z"/><path class="cls-4" d="M172.58,49a4.86,4.86,0,0,0,.77,1.77c.62.93.77.85.77-.62,0-.92-.3-1.69-.77-1.69S172.58,48.67,172.58,49Z"/><path class="cls-4" d="M101.66,49.59a5.34,5.34,0,0,0,.77,1.93c.39.62.77.77.77.39a4.7,4.7,0,0,0-.77-1.93C102.05,49.36,101.66,49.13,101.66,49.59Z"/><path class="cls-4" d="M118.7,52c0,.85.23,1.08.46.47a1.58,1.58,0,0,0-.08-1.47C118.85,50.67,118.62,51.14,118.7,52Z"/><path class="cls-4" d="M124.09,52c0,.85.23,1.08.47.47a1.58,1.58,0,0,0-.08-1.47C124.25,50.67,124,51.14,124.09,52Z"/><path class="cls-4" d="M175.36,54.53a2.27,2.27,0,0,0,.15,2.08c.62,1.08.77,1.08,1.16.15C177.21,55.3,176.05,53.37,175.36,54.53Z"/><path class="cls-4" d="M196.48,56.53a3.29,3.29,0,0,0,1.7,1.16c.46,0,.38-.54-.16-1.16a3.28,3.28,0,0,0-1.69-1.15C195.86,55.38,195.94,55.91,196.48,56.53Z"/><path class="cls-4" d="M129.8,57.69a1.82,1.82,0,0,0,1.23.77c.46,0,.54-.39.31-.77a1.58,1.58,0,0,0-1.23-.77C129.64,56.92,129.57,57.23,129.8,57.69Z"/><path class="cls-4" d="M189.23,59.62a5.48,5.48,0,0,0,2.16,1.15c.46,0,.08-.54-.77-1.15a5.34,5.34,0,0,0-2.16-1.16C188,58.46,188.39,59,189.23,59.62Z"/><path class="cls-4" d="M183.37,60.46a14.15,14.15,0,0,0,2.63,2c1.46.77,1.38.61-.24-1.24C183.76,59.15,181.68,58.38,183.37,60.46Z"/><path class="cls-4" d="M57.49,63.62,56.1,66.48l2.31-2.55c2.7-2.85,2.78-3.16,1.47-3.16C59.34,60.77,58.26,62.08,57.49,63.62Z"/><path class="cls-4" d="M132.5,63.47c1.46,1.46,2.77,2.7,2.85,2.7a9.75,9.75,0,0,0-1.77-2.7c-1.08-1.47-2.39-2.7-2.86-2.7S131,62,132.5,63.47Z"/><path class="cls-4" d="M172.58,61.23c0,1,1.39,3,1.85,2.63.16-.24-.15-1.08-.77-1.86S172.58,60.77,172.58,61.23Z"/><path class="cls-4" d="M203.42,61.39c0,.31.77,1,1.77,1.62,1.7,1.08,1.7,1.08.23-.62S203.42,60.46,203.42,61.39Z"/><path class="cls-4" d="M197.64,64.63a23.32,23.32,0,0,0,3.85,3.23c1.08.54.85.08-.77-1.69a20.88,20.88,0,0,0-3.85-3.24C195.79,62.39,196,62.85,197.64,64.63Z"/><path class="cls-4" d="M63.5,66.86l-3.08,3.55,2.85-2.32c2.47-2,4.16-4.23,3.55-4.62A20.72,20.72,0,0,0,63.5,66.86Z"/><path class="cls-4" d="M74.29,65.32a27.52,27.52,0,0,0-3,3L69.82,70l2.47-.31a8.37,8.37,0,0,0,4.24-2l1.62-1.77-3.08,1.85c-2.7,1.54-2.93,1.62-1.93.3a12,12,0,0,1,2.23-2.46c.62-.54,1-1.16.77-1.31S75.14,64.55,74.29,65.32Z"/><path class="cls-4" d="M80.54,65.94c-.46,1.08-.39,1.15.38.46.54-.54.77-1.16.54-1.39S80.77,65.17,80.54,65.94Z"/><path class="cls-4" d="M202.8,65.86c.77.77,1.54,1.23,1.7,1s-.39-.85-1.31-1.39C201.57,64.47,201.57,64.55,202.8,65.86Z"/><path class="cls-4" d="M105.28,67c.31,1,.62,1.38.85.77a2.12,2.12,0,0,0-.46-1.78C105.05,65.4,105,65.71,105.28,67Z"/><path class="cls-4" d="M125.56,67.48c0,1,2.23,2.93,2.7,2.39.23-.23-.31-1-1.16-1.78S125.56,67.09,125.56,67.48Z"/><path class="cls-4" d="M79,68.56c.15.31-.47.77-1.39.92-1.39.23-1.23.39.62.47a5.27,5.27,0,0,0,3.39-1.08c.85-1,.69-1.16-1-1C79.54,67.94,78.77,68.25,79,68.56Z"/><path class="cls-4" d="M118.62,68.87a3.32,3.32,0,0,0,1.7,1.15c.46,0,.38-.54-.16-1.15a3.31,3.31,0,0,0-1.69-1.16C118,67.71,118.08,68.25,118.62,68.87Z"/><path class="cls-4" d="M138.74,67.94c.15.08,1,.69,1.85,1.31,1.47,1.08,1.47,1.08.46-.23a3.31,3.31,0,0,0-1.85-1.31C138.74,67.71,138.59,67.79,138.74,67.94Z"/><path class="cls-4" d="M183.07,68.87A2.05,2.05,0,0,0,184.69,70c1,0,1-.23.23-1.15C183.68,67.4,182.53,67.4,183.07,68.87Z"/><path class="cls-4" d="M191.47,69.25a2.37,2.37,0,0,0,1.77.77c1.16,0,1.16-.15.16-.77C191.85,68.25,190.85,68.25,191.47,69.25Z"/><text class="cls-5" transform="translate(30.36 112.45)">EXPEDICIÓN</text><text class="cls-6" transform="translate(141.84 152.65)">Norte</text></g></g></g></svg>